<svg fill="none" version="1.1" viewBox="0 0 73 73" xmlns="http://www.w3.org/2000/svg">
    <title>GPS Mission</title>
    <path d="m36 57.1c-5.5-14.3-17-22.5-17-35.36 0-4.509 1.791-8.833 4.979-12.02 3.188-3.188 7.512-4.979 12.02-4.979s8.833 1.791 12.02 4.979c3.188 3.188 4.979 7.512 4.979 12.02 0 12.86-11.5 21.06-17 35.36z" fill="#f8e0fa"/>
    <g stroke="#0c0a0c" stroke-linecap="round" stroke-linejoin="round">
        <path d="m44 42.7c-3.207 4.479-5.891 9.311-8 14.4-2.028-4.945-4.615-9.642-7.71-14"/>
        <path d="m36 67.1c6.627 0 12-1.343 12-3 0-1.657-5.373-3-12-3s-12 1.343-12 3c0 1.657 5.373 3 12 3z" fill="#0c0a0c"/>
        <path d="m51 17.66h4.2"/>
        <path d="m59.4 17.66h3.6"/>
        <path d="m57.66 10.1c0 0.57-0.18 2.11-0.31 3.65"/>
        <path d="m57.08 21.39c-0.06 0.57-0.23 2.1-0.4 3.64"/>
        <path d="m34.2 27.87c2.73 0.91 5.71-1 6.62-4 0.68-2.74-0.56-4.56-2.32-5.27-0.6586-0.2866-1.368-0.4397-2.086-0.4503-0.7182-0.0106-1.431 0.1213-2.098 0.3883-0.6669 0.2669-1.274 0.6635-1.787 1.167s-0.9201 1.103-1.199 1.765c-0.2624 0.6055-0.3958 1.259-0.3917 1.919s0.1457 1.312 0.4157 1.914c0.2701 0.6022 0.6626 1.141 1.153 1.583 0.49 0.4421 1.067 0.7771 1.693 0.9839z"/>
    </g>
</svg>
