<svg fill="none" version="1.1" viewBox="0 0 73 73" xmlns="http://www.w3.org/2000/svg">
    <title>Picture/Video Mission</title>
    <g transform="translate(77.83 10.67)">
        <g stroke="#0c0a0c" stroke-linecap="round" stroke-linejoin="round">
            <path d="m-57.33 18.28h-14v32h60v-24c0-2.122-0.8429-4.157-2.343-5.657-1.5-1.5-3.535-2.343-5.657-2.343h-6l-4-10h-24z"/>
            <path d="m-48.33 12.78s7.69 2.25 14 0"/>
            <path d="m-47.33 17.28h12"/>
        </g>
        <path d="m-41.33 46.28c6.627 0 12-5.373 12-12s-5.373-12-12-12-12 5.373-12 12 5.373 12 12 12z" fill="#ffbf3e"/>
        <g stroke="#0c0a0c" stroke-linecap="round" stroke-linejoin="round">
            <path d="m-35.34 34.3c-0.1731 1.482-0.8755 2.851-1.978 3.856-1.102 1.005-2.531 1.578-4.022 1.614-3.71 0.18-6.3-2.5-6-5.56 0.2133-1.456 0.9249-2.793 2.014-3.783 1.089-0.9902 2.487-1.572 3.956-1.647 3.84-0.29 6.22 2.31 6.03 5.52z"/>
            <path d="m-59.33 27.28v-5h-8v5c2.624-0.6774 5.376-0.6774 8 0z" fill="#0c0a0c"/>
            <path d="m-25.33 2.278 2-8"/>
            <path d="m-30.33 3.278-3-6"/>
            <path d="m-26.33 45.28s4.15-3.71 10 0"/>
            <path d="m-21.33 6.278 7-4"/>
        </g>
    </g>
</svg>
